# xmcd
#
# Track frame offsets:
#	150
#	14497
#	29825
#	45007
#	59065
#	72755
#	88800
#	104055
#	116450
#	126165
#	136190
#	151790
#	168115
#	179680
#	196847
#	211085
#	223530
#	234112
#	245965
#	263097
#	277865
#	290677
#	305560
#	317600
#	331435
#
# Disc length: 4618 seconds
#
# Revision: 0
# Processed by: cddbd v1.5PL3 Copyright (c) Steve Scherf et al.
# Submitted via: audiograbber 1.83.01
#
DISCID=6e120819
DTITLE=Chicago Overcoat - Eyesight To The Blind
DYEAR=1995
DGENRE=Blues
TTITLE0=Cool disposition
TTITLE1=I'm standing in line
TTITLE2=Can't hold out much longer
TTITLE3=Last time I fool around with you
TTITLE4=Break it up
TTITLE5=Blue midnight
TTITLE6=I wonder why
TTITLE7=Lovin' man
TTITLE8=I had my fun
TTITLE9=That's why I'm your fool
TTITLE10=Take me back
TTITLE11=Clouds in my heart
TTITLE12=Eyesight to the blind
TTITLE13=Blues with a feelin'
TTITLE14=Back door friend
TTITLE15=Juke
TTITLE16=Nobody but you
TTITLE17=How many more years
TTITLE18=Boob boom out goes the lights
TTITLE19=Guitar workout
TTITLE20=Baby how long
TTITLE21=Mean old world
TTITLE22=Shake dancer
TTITLE23=One more chance with you
TTITLE24=Sad hours
EXTD=Original LP recording from 1979
EXTT0=
EXTT1=
EXTT2=
EXTT3=
EXTT4=
EXTT5=
EXTT6=
EXTT7=
EXTT8=
EXTT9=
EXTT10=
EXTT11=
EXTT12=
EXTT13=
EXTT14=
EXTT15=
EXTT16=
EXTT17=
EXTT18=
EXTT19=
EXTT20=
EXTT21=
EXTT22=
EXTT23=
EXTT24=
PLAYORDER=
